<svg xmlns="http://www.w3.org/2000/svg" viewBox="0 0 250 250"><defs><style>.cls-1{fill:#e6f1fa;}.cls-2,.cls-4{fill:none;}.cls-2,.cls-4,.cls-5,.cls-6{stroke:#d1d5e2;stroke-linecap:round;stroke-width:4.43px;}.cls-2{stroke-miterlimit:10;}.cls-3,.cls-5{fill:#fdfeff;}.cls-4,.cls-5,.cls-6{stroke-linejoin:round;}.cls-6{fill:#fef5d0;}</style></defs><title>Background 7</title><g id="Background_7" data-name="Background 7"><path class="cls-1" d="M60.68,98.33A67.54,67.54,0,0,0,53.08,116c-5.33,20,0,46.32,12.18,62.86,6,8.13,16.28,15.65,27.05,14.55,7.06-.72,13.22-6.47,20.1-8.56a52.46,52.46,0,0,1,26.47-1.11c9.25,2.05,17.73,6.56,26.64,9.8s18.86,5.17,27.75,1.91c11.5-4.21,15.1-17.5,14.44-28.6-.84-14-12.76-22.76-10.35-37.54,2.13-13.09,12.87-25,10-37.94-2.7-12.13-16.38-18.59-28.77-19.49s-25,1.92-37.23,0c-10.26-1.58-20-6.4-30.35-6.61C91,64.84,70.61,82.05,60.68,98.33Z"/><line class="cls-2" x1="60.75" y1="220" x2="173.45" y2="220"/><line class="cls-2" x1="183.98" y1="220" x2="198.1" y2="220"/><polygon class="cls-3" points="157.62 70.56 215.62 41.06 208.49 89.9 191.21 83.35 180.56 96.03 175.52 77.38 157.62 70.56"/><polygon class="cls-4" points="215.62 41.06 183.39 80.39 208.49 89.9 215.62 41.06"/><polygon class="cls-4" points="175.48 77.36 215.62 41.06 157.62 70.57 175.48 77.36"/><polyline class="cls-4" points="183.39 80.39 180.68 96.01 175.48 77.36"/><line class="cls-4" x1="180.68" y1="96.01" x2="191.21" y2="83.35"/><path class="cls-5" d="M44.47,82.51a5.91,5.91,0,1,1-8.36,0A5.9,5.9,0,0,1,44.47,82.51Z"/><path class="cls-5" d="M129.48,82.51a5.9,5.9,0,1,1-8.35,0A5.9,5.9,0,0,1,129.48,82.51Z"/><path class="cls-5" d="M52.74,110.83a5.91,5.91,0,1,1-5.91,5.91A5.92,5.92,0,0,1,52.74,110.83Z"/><path class="cls-5" d="M112.85,50.72a5.91,5.91,0,1,1-5.9,5.91A5.9,5.9,0,0,1,112.85,50.72Z"/><path class="cls-5" d="M107,116.74a5.91,5.91,0,1,1,5.9,5.91A5.91,5.91,0,0,1,107,116.74Z"/><path class="cls-5" d="M46.83,56.63a5.91,5.91,0,1,1,5.91,5.91A5.91,5.91,0,0,1,46.83,56.63Z"/><path class="cls-5" d="M78.62,125a5.91,5.91,0,1,1,0,8.36A5.93,5.93,0,0,1,78.62,125Z"/><path class="cls-5" d="M78.62,40a5.91,5.91,0,1,1,0,8.35A5.91,5.91,0,0,1,78.62,40Z"/><polygon class="cls-6" points="69.47 78.99 69.47 94.38 82.8 102.08 96.13 94.38 96.13 78.99 82.8 71.29 69.47 78.99"/><polyline class="cls-4" points="69.47 78.91 82.89 86.68 96.13 78.91"/><line class="cls-2" x1="82.89" y1="86.68" x2="82.89" y2="102.04"/></g></svg>