<svg xmlns="http://www.w3.org/2000/svg" viewBox="0 0 250 250"><defs><style>.cls-1{fill:#e6f1fa;}.cls-2,.cls-4{fill:none;}.cls-2,.cls-4,.cls-5,.cls-6,.cls-7{stroke:#d1d5e2;stroke-linecap:round;stroke-miterlimit:10;stroke-width:4.43px;}.cls-3,.cls-5{fill:#fff;}.cls-4{stroke-dasharray:2.16 10.81;}.cls-6{fill:#edf8fe;}.cls-7{fill:#d9e9f8;}</style></defs><title>Background 9</title><g id="Background_9" data-name="Background 9"><path class="cls-1" d="M199.46,93.56C187.23,84.27,173,77.92,160.75,68.67c-13.73-10.34-34.32-14.73-51.26-11C93.58,61.23,86,82.45,78.54,94.84c-4.63,7.76-9.3,15.55-14.89,22.68-2.82,3.6-6,7.85-9.71,10.58-3.47,2.53-6.81,3.76-9.66,7.32a41,41,0,0,0-8.6,22.32c-.75,9.88,3.27,20.51,11.68,25.72,5.53,3.43,12.21,4.24,18.63,5.24,24.93,3.91,48.21,16.27,73.49,17.21,12.18.46,24.87-2.13,34.54-9.55,7.41-5.69,12.47-13.72,16.76-21.87s11.29-13.53,16-21.45C218,134.12,217.89,107.55,199.46,93.56Z"/><line class="cls-2" x1="56.32" y1="220" x2="169.03" y2="220"/><line class="cls-2" x1="179.55" y1="220" x2="193.68" y2="220"/><circle class="cls-3" cx="74.32" cy="102.8" r="37.16" transform="translate(-33.68 36.27) rotate(-22.5)"/><path class="cls-4" d="M74.32,65.64A37.17,37.17,0,1,1,37.16,102.8,37.16,37.16,0,0,1,74.32,65.64Z"/><path class="cls-5" d="M116.8,120.68a36.6,36.6,0,1,0-36.6-36.6A36.6,36.6,0,0,0,116.8,120.68Z"/><path class="cls-6" d="M152.74,74.2a7.67,7.67,0,1,1-7.66,7.67A7.66,7.66,0,0,1,152.74,74.2Z"/><path class="cls-6" d="M173.4,148.88a14.11,14.11,0,1,0-14.11-14.11A14.11,14.11,0,0,0,173.4,148.88Z"/><path class="cls-6" d="M66.35,37A5.35,5.35,0,1,1,61,42.3,5.36,5.36,0,0,1,66.35,37Z"/><circle class="cls-7" cx="56.06" cy="69.53" r="8.37" transform="translate(-22.34 26.75) rotate(-22.5)"/><path class="cls-5" d="M103.64,102.86a32,32,0,1,1-32,32A32,32,0,0,1,103.64,102.86Z"/><path class="cls-6" d="M94,117.82a7.66,7.66,0,1,1-7.67,7.66A7.66,7.66,0,0,1,94,117.82Z"/></g></svg>