<svg xmlns="http://www.w3.org/2000/svg" viewBox="0 0 250 250"><defs><style>.cls-1{fill:#e6f1fa;}.cls-2,.cls-4,.cls-7{fill:none;}.cls-2,.cls-3,.cls-4,.cls-5,.cls-7{stroke:#d1d5e2;stroke-linecap:round;stroke-width:4.43px;}.cls-2,.cls-5,.cls-7{stroke-miterlimit:10;}.cls-3{fill:#fef5d0;}.cls-3,.cls-4{stroke-linejoin:round;}.cls-5,.cls-6{fill:#fff;}.cls-7{stroke-dasharray:2.22 11.12;}</style></defs><title>Background 4</title><g id="Background_4" data-name="Background 4"><path class="cls-1" d="M50,168.77c12.23,9.29,26.42,15.64,38.71,24.89C102.42,204,123,208.39,140,204.63c15.91-3.53,23.54-24.75,31-37.14,4.63-7.76,9.3-15.55,14.89-22.68,2.82-3.6,6-7.85,9.71-10.58,3.46-2.53,6.82-3.76,9.66-7.32a41,41,0,0,0,8.6-22.32c.75-9.87-3.27-20.5-11.68-25.72-5.53-3.43-12.21-4.23-18.63-5.24C158.52,69.72,135.24,57.37,110,56.42,97.78,56,85.09,58.55,75.42,66,68,71.66,63,79.69,58.66,87.85s-11.29,13.52-16,21.45C31.45,128.21,31.55,154.78,50,168.77Z"/><line class="cls-2" x1="55.76" y1="220" x2="168.47" y2="220"/><line class="cls-2" x1="178.99" y1="220" x2="193.12" y2="220"/><path class="cls-3" d="M205.83,59.15A9.83,9.83,0,1,1,196,49.32,9.83,9.83,0,0,1,205.83,59.15Z"/><line class="cls-4" x1="196" y1="40.18" x2="196" y2="43.55"/><line class="cls-4" x1="186.51" y1="42.72" x2="188.2" y2="45.64"/><line class="cls-4" x1="179.57" y1="49.67" x2="182.49" y2="51.35"/><line class="cls-4" x1="177.03" y1="59.15" x2="180.39" y2="59.15"/><line class="cls-4" x1="179.57" y1="68.63" x2="182.49" y2="66.95"/><line class="cls-4" x1="186.51" y1="75.58" x2="188.2" y2="72.66"/><line class="cls-4" x1="196" y1="78.12" x2="196" y2="74.75"/><line class="cls-4" x1="205.48" y1="75.58" x2="203.8" y2="72.66"/><line class="cls-4" x1="212.43" y1="68.63" x2="209.51" y2="66.95"/><line class="cls-4" x1="214.97" y1="59.15" x2="211.6" y2="59.15"/><line class="cls-4" x1="212.43" y1="49.67" x2="209.51" y2="51.35"/><line class="cls-4" x1="205.48" y1="42.72" x2="203.8" y2="45.64"/><path class="cls-5" d="M169.15,180.79l-2-.9c-7.58-3.49-15.27-7.59-23.62-7.68-9.92-.11-18.92,5.44-28.5,8A50.86,50.86,0,0,1,71.22,171c-3.73-2.92-7.15-6.51-8.63-11-1.63-5-.7-10.37-.64-15.6a46.86,46.86,0,0,0-9-27.93c-5.28-7.25-9.07-15.46-6.87-24.61a19.44,19.44,0,0,1,9.36-12.61c6.72-3.6,15-2.28,22.25,0s14.56,5.32,22.17,5c10.18-.43,19.06-6.83,28.88-9.52,22.41-6.16,38.74,8.92,53,23.84,15.38,16.12,28.46,36.66,27.43,59.77-.49,11.21-7,23-17.85,25.9C183.93,186.21,176.21,183.86,169.15,180.79Z"/><path class="cls-6" d="M184.78,137.53q.66,1.31,1.26,2.64c1.57,3.43,2.92,7.14,2.53,10.89-1.69,16.4-24.78,5.52-33.83,4.92a84,84,0,0,0-30.42,3.54c-5.76,1.79-11.35,4.22-17.28,5.31s-12.47.68-17.4-2.8c-5.63-4-7.85-13-3-18,4.43-4.56,12.24-3.86,17.12-7.93,4-3.3,5-8.93,5-14.08s-.73-10.41.64-15.38c2.22-8.07,10-13.9,18.26-15.21s16.8,1.37,23.84,5.91,12.75,10.83,18,17.33A126,126,0,0,1,184.78,137.53Z"/><path class="cls-7" d="M184.78,137.53q.66,1.31,1.26,2.64c1.57,3.43,2.92,7.14,2.53,10.89-1.69,16.4-24.78,5.52-33.83,4.92a84,84,0,0,0-30.42,3.54c-5.76,1.79-11.35,4.22-17.28,5.31s-12.47.68-17.4-2.8c-5.63-4-7.85-13-3-18,4.43-4.56,12.24-3.86,17.12-7.93,4-3.3,5-8.93,5-14.08s-.73-10.41.64-15.38c2.22-8.07,10-13.9,18.26-15.21s16.8,1.37,23.84,5.91,12.75,10.83,18,17.33A126,126,0,0,1,184.78,137.53Z"/><path class="cls-5" d="M79.52,125.68a18.09,18.09,0,0,0,9.44.78,12.52,12.52,0,0,0,8.68-6,14.06,14.06,0,0,0,1.19-8.35A24.3,24.3,0,0,0,71.22,91c-3.19.45-6.42,1.64-8.56,4-3.38,3.8-3.21,9.79-1,14.35C65,116.13,71.86,123.07,79.52,125.68Z"/><path class="cls-5" d="M160.77,147.26a8,8,0,0,0,2.6-.47c3.77-1.41,5.53-6.27,4.21-10.07s-5.1-6.4-9.06-7.13-8.07.15-11.82,1.61-7.26,3.5-10.92,5.18a64,64,0,0,1-17,5.06c-3,.45-6.81,1.47-7,4.48-.15,2,1.58,3.68,3.48,4.2,5.84,1.59,14-1.59,19.76-2.61,6.84-1.22,13.74-1.92,20.65-.8A26.79,26.79,0,0,0,160.77,147.26Z"/><path class="cls-5" d="M142.79,115.18a8.59,8.59,0,0,0,1-6.32c-.88-3.48-4.48-5.88-8.07-6a12.54,12.54,0,0,0-9.4,4.54,24,24,0,0,0-4.72,9.59c-.57,2.09-1,4.45.15,6.32,3.24,5.48,16.51-3,19.22-5.79A11.55,11.55,0,0,0,142.79,115.18Z"/></g></svg>