<svg xmlns="http://www.w3.org/2000/svg" viewBox="0 0 250 250"><defs><style>.cls-1,.cls-4{fill:#e6f1fa;}.cls-2{fill:none;stroke-linecap:round;stroke-miterlimit:10;}.cls-2,.cls-3,.cls-4,.cls-5,.cls-6,.cls-7,.cls-8{stroke:#d1d5e2;stroke-width:4.43px;}.cls-3{fill:#fff3df;}.cls-3,.cls-4,.cls-5,.cls-6,.cls-7,.cls-8{stroke-linejoin:round;}.cls-5{fill:#fef9e2;}.cls-6{fill:#eff5e0;}.cls-7{fill:#e7eed4;}.cls-8{fill:#fdfeff;}</style></defs><title>Background 6</title><g id="Background_6" data-name="Background 6"><path class="cls-1" d="M173.94,63.17c4.28,6.24,6.33,13.84,8.49,21.16a106.69,106.69,0,0,0,15.85,31.55c13.1,18.11,21.6,31.41,11,59.8-15.73,42.28-38.47,39.48-65,22-22.75-15-38.4,3.67-61.32,5.44-16.56,1.28-32.65-7.18-40.68-28.9C37.41,161,36,145.77,36.05,130.88c.1-20.62,2.42-62.58,29.94-65.53C83,63.51,97.52,76.16,114.3,75.44c20.48-.87,37.53-39.2,57.94-14.52C172.85,61.65,173.41,62.4,173.94,63.17Z"/><line class="cls-2" x1="56.39" y1="220" x2="169.09" y2="220"/><line class="cls-2" x1="179.62" y1="220" x2="193.74" y2="220"/><rect class="cls-3" x="144.31" y="78.95" width="70.61" height="9.14"/><rect class="cls-4" x="184.74" y="47.65" width="8.58" height="31.29"/><rect class="cls-5" x="193.32" y="47.65" width="8.58" height="31.29"/><rect class="cls-6" x="201.91" y="47.65" width="8.58" height="31.29"/><path class="cls-3" d="M159.82,79a11.08,11.08,0,0,0,11.07-11.08H148.74A11.08,11.08,0,0,0,159.82,79Z"/><path class="cls-7" d="M166.74,67.87V59.38a7,7,0,0,0-6.92-6.92h0a7,7,0,0,0-6.93,6.92v8.49Z"/><rect class="cls-8" x="37.57" y="191.96" width="22.71" height="18"/><rect class="cls-8" x="35.08" y="184.2" width="27.69" height="7.75"/></g></svg>