<svg version="1.1" xmlns="http://www.w3.org/2000/svg" xmlns:xlink="http://www.w3.org/1999/xlink" x="0px" y="0px" viewBox="0 0 446 128" enable-background="new 0 0 446 128" xml:space="preserve" style="visibility: visible;">
   <g id="color-one" fill="#ddd">
<rect x="60.8" y="77.6" transform="matrix(0.4737 0.8807 -0.8807 0.4737 112.2388 -21.6593)" width="26.8" height="11"></rect>
<polygon points="70.9,77.1 33.8,73.1 35,62.2 64.8,65.4 75.8,45.4 85.4,50.7 "></polygon>
<path d="M20.2,84.7c-6.7,0-13-3.3-16.8-9C-1.1,69-1.1,60,3.4,53.3c3.8-5.6,10.1-9,16.8-9c6.7,0,13,3.3,16.8,9
	c4.6,6.7,4.6,15.7,0,22.4C33.2,81.3,26.9,84.7,20.2,84.7z M20.2,55.7c-3,0-5.7,1.5-7.4,4c-2,2.9-2,6.8,0,9.7c1.7,2.5,4.4,4,7.4,4
	c3,0,5.7-1.5,7.4-4c2-2.9,2-6.8,0-9.7C25.9,57.1,23.2,55.7,20.2,55.7z"></path>
<path d="M87,127.3c-6.7,0-13-3.3-16.8-9c-4.6-6.7-4.6-15.7,0-22.4c3.8-5.6,10.1-9,16.8-9s13,3.3,16.8,9
	c4.6,6.7,4.6,15.7,0,22.4C100,124,93.7,127.3,87,127.3z M87,98.3c-3,0-5.7,1.5-7.4,4c-2,2.9-2,6.8,0,9.7c1.7,2.5,4.4,4,7.4,4
	s5.7-1.5,7.4-4c2-2.9,2-6.8,0-9.7C92.7,99.8,90,98.3,87,98.3z"></path>
<path d="M127.5,86.8c3.4,4,8.2,6.6,13.2,6.6c6.3,0,10-3.5,10-8.7c0-5.4-3.5-7.1-8-9.4l-6.8-3.3
	c-4.4-2.1-9.7-5.9-9.7-13.7c0-8.1,6.4-14.1,15.1-14.1c5.7,0,10.7,2.7,14.1,6.5l-3.2,4.4c-2.9-3.1-6.5-5-10.9-5c-5.4,0-9,3-9,7.8
	c0,5.1,4.2,7,7.9,8.8l6.8,3.2c5.5,2.7,9.8,6.3,9.8,14.2c0,8.4-6.3,15.1-16.3,15.1c-6.7,0-12.5-3.1-16.7-7.8L127.5,86.8z"></path>
<path d="M280.3,98l-11.5-23H259v23h-6V44h16.1c9.7,0,16.7,4.5,16.7,15.5c0,8.3-4.2,13.3-10.7,15.2L287.3,98H280.3z
	 M259,69h9.1c7.7,0,11.9-3.5,11.9-10.4c0-7-4.2-9.6-11.9-9.6H259V69z"></path>
<path d="M303,50h-15v-6h35v6h-14v48h-6V50z"></path>
<path d="M237.8,81h-17.8l-4.7,17h-6.3l16.5-54h7l16.5,54h-6.5L237.8,81z M236.2,76l-2.3-8.1
	c-1.7-5.9-3.2-11.9-4.8-17.9h-0.3c-1.5,6-3.1,12-4.8,17.9l-2.4,8.1H236.2z"></path>
<path d="M164,44h8.1l9.4,28.9L185,84h0.3l3.4-11.1L198,44h6v54h-5V68.9c0-4.7,0.2-11.7,0.6-16.8l-0.2,0l-3.4,11.8
	L186.8,92h-3.5l-9.3-28.1L169.6,52h-0.4c0,4.9-0.2,12.2-0.2,16.9V98h-5V44z"></path>
  </g>
<g id="color-two" fill="#ED1C24">
	<path d="M88.7,55.2c-8.9,0-17.1-4.2-22.4-11.4c-7-9.5-7-22.8,0-32.4C71.6,4.2,79.8,0,88.7,0s17.1,4.2,22.4,11.4
		c7,9.5,7,22.8,0,32.4C105.8,51.1,97.6,55.2,88.7,55.2z M88.7,11.2c-5.3,0-10.2,2.5-13.3,6.8c-4.1,5.6-4.1,13.5,0,19.1
		c3.2,4.3,8,6.8,13.3,6.8s10.2-2.5,13.3-6.8c4.1-5.6,4.1-13.5,0-19.1C98.8,13.7,94,11.2,88.7,11.2z"></path>
	<path d="M358,83.1c-2,2.4-4.4,4.2-8.4,4.2c-6.9,0-11.1-5.6-11.1-15.8c0-9.8,5.6-15.6,12-15.6c3.4,0,5,1.3,7.7,3.7
		L358,59V45.7c-3-1.3-5-2.1-8.3-2.1c-13.7,0-25.6,10.3-25.6,28.4c0,18.4,11.2,27.6,25.1,27.6c3.3,0,5.8-0.7,8.8-2V83.1z"></path>
	<path d="M375,56h-12V44h37v12h-12v42h-13V56z"></path>
	<path d="M431.2,98L423,80h-5v18h-13V44h18.5c10.2,0,19,4.4,19,17.9c0,7.7-3.1,12.6-7.7,15.4L445.2,98H431.2z
		 M418,68h4.7c5,0,7.6-2.3,7.6-7s-2.6-6-7.6-6H418V68z"></path>
</g>
</svg>