<svg xmlns="http://www.w3.org/2000/svg" viewBox="0 0 250 250"><defs><style>.cls-1{fill:#e6f1fa;}.cls-2,.cls-5{fill:none;}.cls-10,.cls-2,.cls-3,.cls-4,.cls-5,.cls-6,.cls-7,.cls-8,.cls-9{stroke:#d1d5e2;stroke-width:4.43px;}.cls-2,.cls-3,.cls-4,.cls-5{stroke-linecap:round;}.cls-2,.cls-6{stroke-miterlimit:10;}.cls-3,.cls-8{fill:#fdfeff;}.cls-10,.cls-3,.cls-4,.cls-5,.cls-7,.cls-8,.cls-9{stroke-linejoin:round;}.cls-4{fill:#fff;}.cls-6{fill:#eaecf2;}.cls-7{fill:#fff3df;}.cls-9{fill:#fcdbe0;}.cls-10{fill:#fef9e2;}</style></defs><title>Background 2</title><g id="Background_2" data-name="Background 2"><path class="cls-1" d="M196.44,164a67.4,67.4,0,0,0,7.6-17.62c5.33-19.95,0-46.32-12.18-62.86-6-8.12-16.28-15.64-27.05-14.55-7.06.72-13.22,6.47-20.1,8.56a52.57,52.57,0,0,1-26.47,1.12c-9.25-2.06-17.73-6.57-26.64-9.81s-18.86-5.16-27.75-1.91c-11.5,4.21-15.1,17.5-14.44,28.6.84,14,12.76,22.76,10.35,37.54-2.13,13.09-12.87,25-10,37.94,2.7,12.13,16.38,18.6,28.77,19.49s24.95-1.92,37.23,0c10.26,1.58,20,6.4,30.35,6.61C166.12,197.49,186.51,180.28,196.44,164Z"/><line class="cls-2" x1="59.02" y1="220" x2="171.73" y2="220"/><line class="cls-2" x1="182.25" y1="220" x2="196.37" y2="220"/><path class="cls-3" d="M88.76,78.42A29.22,29.22,0,1,1,59.55,49.2,29.21,29.21,0,0,1,88.76,78.42Z"/><path class="cls-4" d="M81.07,78.42A21.53,21.53,0,1,1,59.55,56.89,21.52,21.52,0,0,1,81.07,78.42Z"/><line class="cls-5" x1="59.78" y1="78.56" x2="59.78" y2="62.94"/><line class="cls-5" x1="59.47" y1="78.3" x2="70.35" y2="78.3"/><line class="cls-5" x1="43.41" y1="78.3" x2="45.9" y2="78.3"/><line class="cls-5" x1="59.75" y1="94.34" x2="59.75" y2="91.85"/><path class="cls-6" d="M63.4,78.35a3.74,3.74,0,1,1-3.74-3.74A3.74,3.74,0,0,1,63.4,78.35Z"/><rect class="cls-7" x="147.95" y="65.13" width="70.61" height="9.14"/><rect class="cls-7" x="147.95" y="74.27" width="9.14" height="9.14" transform="translate(231.35 -73.68) rotate(90)"/><rect class="cls-7" x="209.42" y="74.26" width="9.14" height="9.14" transform="translate(292.83 -135.16) rotate(90)"/><rect class="cls-8" x="152.38" y="33.84" width="8.58" height="31.29"/><rect class="cls-9" x="160.96" y="33.84" width="8.58" height="31.29"/><rect class="cls-10" x="169.55" y="33.84" width="8.58" height="31.29"/><line class="cls-2" x1="201.39" y1="199.43" x2="201.39" y2="165.92"/><line class="cls-2" x1="210.53" y1="199.43" x2="210.53" y2="178.66"/><line class="cls-2" x1="201.39" y1="159.83" x2="201.39" y2="142.94"/><line class="cls-2" x1="210.53" y1="172.57" x2="210.53" y2="142.94"/><line class="cls-2" x1="219.67" y1="142.94" x2="219.67" y2="172.57"/><line class="cls-2" x1="219.67" y1="178.66" x2="219.67" y2="185.59"/><line class="cls-2" x1="219.67" y1="191.68" x2="219.67" y2="199.43"/></g></svg>