<svg xmlns="http://www.w3.org/2000/svg" viewBox="0 0 250 250"><defs><style>.cls-1{fill:#e6f1fa;}.cls-2,.cls-4,.cls-5{fill:none;}.cls-2,.cls-4,.cls-5,.cls-6,.cls-7,.cls-8{stroke:#d1d5e2;stroke-linecap:round;stroke-width:4.43px;}.cls-2{stroke-miterlimit:10;}.cls-3,.cls-6{fill:#fff;}.cls-4,.cls-5,.cls-6,.cls-7,.cls-8{stroke-linejoin:round;}.cls-5{stroke-dasharray:2.48 12.42;}.cls-7{fill:#edf8fe;}.cls-8{fill:#fdfeff;}</style></defs><title>Background 1</title><g id="Background_1" data-name="Background 1"><path class="cls-1" d="M68.27,60.48C75.52,58.3,83.38,58.66,91,58.83a106.83,106.83,0,0,0,34.88-5.47c21.24-7,36.49-11,60.32,7.7,35.48,27.87,25.87,48.68,1.12,68.66-21.18,17.1-8.2,37.68-13.5,60.06-3.83,16.16-16.78,28.91-39.92,29.93-14,.62-29-2.67-43.16-7.27-19.62-6.38-58.87-21.37-53.3-48.49,3.45-16.8,19.91-26.73,24.34-42.93,5.4-19.77-25.91-47.69,3.82-59.62C66.48,61.05,67.37,60.75,68.27,60.48Z"/><line class="cls-2" x1="54.52" y1="220" x2="167.22" y2="220"/><line class="cls-2" x1="177.74" y1="220" x2="191.87" y2="220"/><rect class="cls-3" x="77.58" y="81.27" width="59.35" height="59.35" transform="translate(-47.04 108.33) rotate(-45)"/><polyline class="cls-4" points="108.03 152.12 107.25 152.91 106.47 152.12"/><line class="cls-5" x1="97.68" y1="143.34" x2="70.46" y2="116.12"/><polyline class="cls-4" points="66.07 111.73 65.28 110.94 66.07 110.16"/><line class="cls-5" x1="74.85" y1="101.38" x2="102.07" y2="74.15"/><polyline class="cls-4" points="106.47 69.76 107.25 68.98 108.03 69.76"/><line class="cls-5" x1="116.81" y1="78.54" x2="144.04" y2="105.77"/><polyline class="cls-4" points="148.43 110.16 149.21 110.94 148.43 111.73"/><line class="cls-5" x1="139.65" y1="120.51" x2="112.42" y2="147.73"/><rect class="cls-6" x="94.39" y="53.32" width="46.18" height="46.18" transform="translate(-19.62 105.45) rotate(-45)"/><rect class="cls-7" x="164.75" y="56.58" width="26.94" height="26.94" transform="translate(2.67 146.54) rotate(-45)"/><rect class="cls-7" x="71.4" y="58.58" width="11.73" height="11.73" transform="translate(68.2 -35.76) rotate(45)"/><rect class="cls-6" x="77.19" y="123.65" width="17.22" height="17.22" transform="translate(118.64 -21.93) rotate(45)"/><rect class="cls-6" x="108.97" y="35.09" width="17.22" height="17.22" transform="translate(65.34 -70.34) rotate(45)"/><rect class="cls-6" x="111.81" y="88.36" width="49.62" height="49.62" transform="translate(120.04 -63.46) rotate(45)"/><path class="cls-6" d="M56.88,85.2a9.83,9.83,0,1,1-9.83-9.83A9.83,9.83,0,0,1,56.88,85.2Z"/><line class="cls-4" x1="47.05" y1="66.23" x2="47.05" y2="69.6"/><line class="cls-4" x1="37.57" y1="68.77" x2="39.25" y2="71.69"/><line class="cls-4" x1="30.62" y1="75.72" x2="33.54" y2="77.4"/><line class="cls-4" x1="28.08" y1="85.2" x2="31.45" y2="85.2"/><line class="cls-4" x1="30.62" y1="94.69" x2="33.54" y2="93"/><line class="cls-4" x1="37.57" y1="101.63" x2="39.25" y2="98.71"/><line class="cls-4" x1="47.05" y1="104.17" x2="47.05" y2="100.8"/><line class="cls-4" x1="56.54" y1="101.63" x2="54.85" y2="98.71"/><line class="cls-4" x1="63.48" y1="94.69" x2="60.56" y2="93"/><line class="cls-4" x1="66.02" y1="85.2" x2="62.66" y2="85.2"/><line class="cls-4" x1="63.48" y1="75.72" x2="60.56" y2="77.4"/><line class="cls-4" x1="56.54" y1="68.77" x2="54.85" y2="71.69"/><path class="cls-8" d="M211.81,98.63a5.88,5.88,0,1,1-5.88-5.87A5.88,5.88,0,0,1,211.81,98.63Z"/><path class="cls-8" d="M201.7,115.52a5.88,5.88,0,1,1-5.87-5.87A5.87,5.87,0,0,1,201.7,115.52Z"/><path class="cls-8" d="M221.92,115.52a5.88,5.88,0,1,1-5.88-5.87A5.88,5.88,0,0,1,221.92,115.52Z"/></g></svg>