<svg xmlns="http://www.w3.org/2000/svg" viewBox="0 0 250 250"><defs><style>.cls-1{fill:#e6f1fa;}.cls-2,.cls-4{fill:none;}.cls-2,.cls-3,.cls-4{stroke:#d1d5e2;stroke-linecap:round;stroke-width:4.43px;}.cls-2{stroke-miterlimit:10;}.cls-3{fill:#fdfeff;}.cls-3,.cls-4{stroke-linejoin:round;}.cls-5{fill:#fef9e2;}</style></defs><title>Background 8</title><g id="Background_8" data-name="Background 8"><path class="cls-1" d="M106.15,57.29c9.06.29,17.57,1.94,22.76,4.13,12.63,5.32,22.83,14.69,34.31,21.93s26.42,7.45,36.21,16.88c3.68,3.55,6.24,8.48,6.15,13.6s-2.76,9.93-5.83,14.09-6.63,8-8.94,12.63c-7.78,15.58,10.73,39.13-10.95,48.86-8.61,3.87-18.48,3.14-27.88,4.1-14.43,1.48-28.11,7-42.3,10.06-29.87,6.35-57.31-7.38-62.08-39.42a52.36,52.36,0,0,1,9.2-37.88c6.42-8.91,16.19-17.18,15.55-28.14-.39-6.61-4.69-12.57-4.73-19.19C67.51,61.69,87.93,56.72,106.15,57.29Z"/><line class="cls-2" x1="57.64" y1="220" x2="170.35" y2="220"/><line class="cls-2" x1="180.87" y1="220" x2="195" y2="220"/><rect class="cls-3" x="183.18" y="164.56" width="23.64" height="39.3" rx="11.82" transform="translate(389.99 368.41) rotate(180)"/><line class="cls-4" x1="195" y1="171.37" x2="195" y2="182.76"/><polygon class="cls-5" points="92.2 45.46 43.19 45.46 43.19 93.6 80.14 93.6 92.2 81.54 92.2 45.46"/><polygon class="cls-4" points="92.2 81.54 80.14 81.54 80.14 93.6 92.2 81.54"/><polygon class="cls-4" points="43.19 93.6 80.14 93.6 92.2 81.54 92.2 45.46 43.19 45.46 43.19 93.6"/><line class="cls-4" x1="192.54" y1="47.44" x2="192.54" y2="77.63"/><line class="cls-4" x1="179.8" y1="55.2" x2="205.27" y2="69.87"/><line class="cls-4" x1="179.8" y1="69.87" x2="205.27" y2="55.2"/></g></svg>