<svg xmlns="http://www.w3.org/2000/svg" viewBox="0 0 250 250"><defs><style>.cls-1{fill:#e6f1fa;}.cls-2,.cls-6{fill:none;}.cls-2,.cls-3,.cls-4,.cls-6{stroke:#d1d5e2;stroke-width:4.43px;}.cls-2,.cls-3,.cls-6{stroke-linecap:round;}.cls-2{stroke-miterlimit:10;}.cls-3{fill:#fdfeff;}.cls-3,.cls-4,.cls-6{stroke-linejoin:round;}.cls-4{fill:#fef5d0;}.cls-5{fill:#fff;}</style></defs><title>Background 3</title><g id="Background_3" data-name="Background 3"><path class="cls-1" d="M177.1,198.77c-8.17,3.91-16.49,6.37-22.1,6.81-13.66,1.08-27-2.54-40.56-3.69-13.35-1.14-26.88,5.54-39.91,1.67-4.91-1.46-9.44-4.66-11.72-9.24s-2.12-10.09-1.3-15.19,2.2-10.17,2.12-15.33C63.37,146.38,36.1,134,50.87,115.38c5.88-7.4,15-11.29,22.87-16.47,12.14-8,21.72-19.18,32.94-28.39C130.28,51.14,161,50.71,179.93,77a52.38,52.38,0,0,1,9.26,37.86c-1.6,10.87-6.47,22.71-.86,32.15,3.38,5.69,9.95,9,13,14.86C209.39,177.1,193.54,190.9,177.1,198.77Z"/><line class="cls-2" x1="56.32" y1="220" x2="169.03" y2="220"/><line class="cls-2" x1="179.55" y1="220" x2="193.68" y2="220"/><circle class="cls-3" cx="135.97" cy="89.3" r="5.91"/><path class="cls-3" d="M167.94,89.3A5.91,5.91,0,1,1,162,83.39,5.92,5.92,0,0,1,167.94,89.3Z"/><path class="cls-3" d="M194,89.3a5.91,5.91,0,1,1-5.91-5.91A5.92,5.92,0,0,1,194,89.3Z"/><circle class="cls-3" cx="214.15" cy="89.3" r="5.91"/><path class="cls-3" d="M141.88,115.36a5.91,5.91,0,1,1-5.91-5.91A5.92,5.92,0,0,1,141.88,115.36Z"/><path class="cls-3" d="M167.94,115.36a5.91,5.91,0,1,1-5.91-5.91A5.92,5.92,0,0,1,167.94,115.36Z"/><path class="cls-3" d="M194,115.36a5.91,5.91,0,1,1-5.91-5.91A5.92,5.92,0,0,1,194,115.36Z"/><path class="cls-3" d="M220.06,115.36a5.91,5.91,0,1,1-5.91-5.91A5.92,5.92,0,0,1,220.06,115.36Z"/><circle class="cls-3" cx="135.97" cy="141.42" r="5.91"/><path class="cls-3" d="M167.94,141.42a5.91,5.91,0,1,1-5.91-5.91A5.92,5.92,0,0,1,167.94,141.42Z"/><path class="cls-3" d="M194,141.42a5.91,5.91,0,1,1-5.91-5.91A5.92,5.92,0,0,1,194,141.42Z"/><circle class="cls-3" cx="214.15" cy="141.42" r="5.91"/><path class="cls-3" d="M141.88,167.48a5.91,5.91,0,1,1-5.91-5.91A5.92,5.92,0,0,1,141.88,167.48Z"/><path class="cls-3" d="M167.94,167.48a5.91,5.91,0,1,1-5.91-5.91A5.92,5.92,0,0,1,167.94,167.48Z"/><path class="cls-3" d="M194,167.48a5.91,5.91,0,1,1-5.91-5.91A5.92,5.92,0,0,1,194,167.48Z"/><path class="cls-3" d="M220.06,167.48a5.91,5.91,0,1,1-5.91-5.91A5.92,5.92,0,0,1,220.06,167.48Z"/><path class="cls-4" d="M43.3,118.33l3.18,5.81a1.63,1.63,0,0,0,.65.65L52.94,128a1.65,1.65,0,0,1,0,2.88L47.13,134a1.59,1.59,0,0,0-.65.66l-3.18,5.8a1.63,1.63,0,0,1-2.87,0l-3.18-5.8a1.59,1.59,0,0,0-.65-.66l-5.81-3.17a1.65,1.65,0,0,1,0-2.88l5.81-3.17a1.63,1.63,0,0,0,.65-.65l3.18-5.81A1.63,1.63,0,0,1,43.3,118.33Z"/><path class="cls-5" d="M104.84,72.34a15.06,15.06,0,0,0-26.52-8.42,12.9,12.9,0,0,0-18,11.85c0,.23,0,.46,0,.72a9.37,9.37,0,0,0-6.44,9,9.26,9.26,0,0,0,9.25,9.26h37.71a11.54,11.54,0,0,0,4-22.38Z"/><path class="cls-6" d="M104.63,73.34a14.19,14.19,0,0,0-26-7.93"/><path class="cls-6" d="M82.26,69.22A11.84,11.84,0,0,0,60.51,75.7a13.37,13.37,0,0,0,.31,2.54h0a8,8,0,0,0-7.31,8,7.88,7.88,0,0,0,7.87,7.87h41.1a10.36,10.36,0,0,0,0-20.72,10.19,10.19,0,0,0-3.42.58"/></g></svg>