<svg id="Background_10" data-name="Background 10" xmlns="http://www.w3.org/2000/svg" viewBox="0 0 250 250"><defs><style>.cls-1{fill:#e6f1fa;}.cls-2,.cls-4,.cls-5{fill:none;}.cls-2,.cls-3,.cls-4,.cls-5,.cls-6,.cls-7{stroke:#d1d5e2;stroke-linecap:round;stroke-width:4.43px;}.cls-2{stroke-miterlimit:10;}.cls-3{fill:#fff;}.cls-3,.cls-4,.cls-5,.cls-6,.cls-7{stroke-linejoin:round;}.cls-5{stroke-dasharray:2.39 11.94;}.cls-6{fill:#edf8fe;}.cls-7{fill:#f5f7fc;}</style></defs><title>Background 10</title><path class="cls-1" d="M131.27,71l1.1.79c9,6.63,17,14.57,26.26,20.9,11.36,7.79,24.63,13.16,34,23.27,18.62,20.11-1.12,39.31-7.56,59.72-2.57,8.15-5.52,16.64-11.88,22.34-7.07,6.34-16.87,5.18-25.28,2.54-10.74-3.38-18.58-6-30.24-4.49-10.59,1.35-21,4.23-31.73,4s-22.1-4.26-27.53-13.46C44.28,162.7,74.65,137.5,73.82,113.17c-.42-12.28-5.94-24.68.07-36.46,5.11-10,16.56-17.06,27.76-17C112.38,59.73,122.5,64.7,131.27,71Z"/><line class="cls-2" x1="58.86" y1="220" x2="171.56" y2="220"/><line class="cls-2" x1="182.08" y1="220" x2="196.21" y2="220"/><polygon class="cls-3" points="154.53 81.48 123.21 135.72 185.84 135.72 154.53 81.48"/><polygon class="cls-3" points="108.59 112.16 133.36 69.25 83.81 69.25 108.59 112.16"/><polyline class="cls-4" points="78.73 89.5 78.18 88.54 77.63 89.5"/><line class="cls-5" x1="71.66" y1="99.84" x2="45.98" y2="144.31"/><polyline class="cls-4" points="43 149.48 42.44 150.44 43.55 150.44"/><line class="cls-5" x1="55.49" y1="150.44" x2="106.84" y2="150.44"/><polyline class="cls-4" points="112.81 150.44 113.92 150.44 113.36 149.48"/><line class="cls-5" x1="107.39" y1="139.14" x2="81.72" y2="94.67"/><polygon class="cls-6" points="68.53 69.78 86.65 38.4 50.42 38.4 68.53 69.78"/><polygon class="cls-3" points="127.07 96.8 88.46 163.68 165.68 163.68 127.07 96.8"/><polygon class="cls-6" points="134.98 176.61 147.32 155.23 122.64 155.23 134.98 176.61"/><polygon class="cls-3" points="56.07 92.67 34.76 129.56 77.37 129.56 56.07 92.67"/><line class="cls-4" x1="170.38" y1="50.62" x2="177.01" y2="50.62"/><path class="cls-7" d="M191,42.37S177,41.76,177,49.72s1.75,17.6,13.94,17.6,14-9.65,14-17.6S191,42.37,191,42.37Z"/><line class="cls-4" x1="204.61" y1="54.67" x2="215.24" y2="61.01"/><path class="cls-7" d="M156.45,42.37s-13.95-.61-13.95,7.35,1.75,17.6,13.95,17.6,13.94-9.65,13.94-17.6S156.45,42.37,156.45,42.37Z"/><line class="cls-4" x1="142.75" y1="54.67" x2="132.12" y2="61.01"/></svg>