<svg 
 xmlns="http://www.w3.org/2000/svg"
 xmlns:xlink="http://www.w3.org/1999/xlink"
 width="8.556in" height="1.528in">
<path fill-rule="evenodd"  fill="rgb(255, 255, 255)"
 d="M607.848,49.760 L607.848,93.518 L590.916,93.518 L590.916,49.760 L582.552,49.760 L582.552,36.908 L590.916,36.908 L590.916,18.038 L607.848,18.038 L607.848,36.908 L616.008,36.908 L616.008,49.760 L607.848,49.760 ZM581.005,75.719 C579.746,79.289 577.859,82.519 575.344,85.409 C572.828,88.300 569.666,90.662 565.858,92.498 C562.049,94.334 557.561,95.252 552.394,95.252 C547.226,95.252 542.738,94.334 538.930,92.498 C535.121,90.662 531.959,88.300 529.444,85.409 C526.928,82.519 525.041,79.289 523.783,75.719 C522.524,72.149 521.896,68.630 521.896,65.162 C521.896,61.694 522.524,58.175 523.783,54.605 C525.041,51.035 526.928,47.806 529.444,44.915 C531.959,42.025 535.121,39.662 538.930,37.826 C542.738,35.990 547.226,35.072 552.394,35.072 C557.561,35.072 562.049,35.990 565.858,37.826 C569.666,39.662 572.828,42.025 575.344,44.915 C577.859,47.806 579.746,51.035 581.005,54.605 C582.263,58.175 582.892,61.694 582.892,65.162 C582.892,68.630 582.263,72.149 581.005,75.719 ZM564.889,59.450 C564.175,57.682 563.189,56.170 561.931,54.911 C560.672,53.653 559.228,52.667 557.596,51.953 C555.964,51.239 554.230,50.882 552.394,50.882 C550.558,50.882 548.824,51.239 547.192,51.953 C545.560,52.667 544.115,53.653 542.857,54.911 C541.598,56.170 540.613,57.682 539.899,59.450 C539.185,61.219 538.828,63.122 538.828,65.162 C538.828,67.202 539.185,69.106 539.899,70.874 C540.613,72.643 541.598,74.155 542.857,75.413 C544.115,76.672 545.560,77.657 547.192,78.371 C548.824,79.085 550.558,79.442 552.394,79.442 C554.230,79.442 555.964,79.085 557.596,78.371 C559.228,77.657 560.672,76.672 561.931,75.413 C563.189,74.155 564.175,72.643 564.889,70.874 C565.603,69.106 565.960,67.202 565.960,65.162 C565.960,63.122 565.603,61.219 564.889,59.450 ZM511.302,85.409 C508.786,88.300 505.624,90.662 501.816,92.498 C498.007,94.334 493.519,95.252 488.352,95.252 C483.184,95.252 478.696,94.334 474.888,92.498 C471.079,90.662 467.917,88.300 465.402,85.409 C462.886,82.519 460.999,79.289 459.741,75.719 C458.482,72.149 457.854,68.630 457.854,65.162 C457.854,61.694 458.482,58.175 459.741,54.605 C460.999,51.035 462.886,47.806 465.402,44.915 C467.917,42.025 471.079,39.662 474.888,37.826 C478.696,35.990 483.184,35.072 488.352,35.072 C493.519,35.072 498.007,35.990 501.816,37.826 C505.624,39.662 508.786,42.025 511.302,44.915 C513.817,47.806 515.704,51.035 516.963,54.605 C518.221,58.175 518.850,61.694 518.850,65.162 C518.850,68.630 518.221,72.149 516.963,75.719 C515.704,79.289 513.817,82.519 511.302,85.409 ZM500.847,59.450 C500.133,57.682 499.147,56.170 497.889,54.911 C496.630,53.653 495.186,52.667 493.554,51.953 C491.922,51.239 490.188,50.882 488.352,50.882 C486.516,50.882 484.782,51.239 483.150,51.953 C481.518,52.667 480.073,53.653 478.815,54.911 C477.556,56.170 476.571,57.682 475.857,59.450 C475.143,61.219 474.786,63.122 474.786,65.162 C474.786,67.202 475.143,69.106 475.857,70.874 C476.571,72.643 477.556,74.155 478.815,75.413 C480.073,76.672 481.518,77.657 483.150,78.371 C484.782,79.085 486.516,79.442 488.352,79.442 C490.188,79.442 491.922,79.085 493.554,78.371 C495.186,77.657 496.630,76.672 497.889,75.413 C499.147,74.155 500.133,72.643 500.847,70.874 C501.561,69.106 501.918,67.202 501.918,65.162 C501.918,63.122 501.561,61.219 500.847,59.450 ZM436.484,18.038 L453.416,18.038 L453.416,93.518 L436.484,93.518 L436.484,18.038 Z"/>
<path fill-rule="evenodd"  fill="rgb(255, 255, 255)"
 d="M413.016,93.518 L413.016,87.398 L412.812,87.398 C412.063,88.759 411.112,89.948 409.956,90.968 C408.799,91.988 407.473,92.839 405.978,93.518 C404.482,94.197 402.901,94.691 401.235,94.997 C399.568,95.303 397.920,95.456 396.288,95.456 C391.800,95.456 387.787,94.640 384.252,93.008 C380.716,91.376 377.740,89.167 375.327,86.378 C372.913,83.590 371.059,80.377 369.768,76.739 C368.476,73.102 367.830,69.242 367.830,65.162 C367.830,60.538 368.611,56.356 370.176,52.616 C371.740,48.877 373.813,45.697 376.398,43.079 C378.982,40.462 381.991,38.455 385.425,37.061 C388.858,35.668 392.479,34.970 396.288,34.970 C398.599,34.970 400.674,35.225 402.510,35.735 C404.346,36.245 405.943,36.892 407.304,37.673 C408.664,38.455 409.786,39.305 410.670,40.223 C411.553,41.141 412.267,42.043 412.812,42.926 L413.016,42.926 L413.016,36.908 L429.948,36.908 L429.948,93.518 L413.016,93.518 ZM412.149,60.062 C411.571,58.363 410.686,56.815 409.497,55.421 C408.307,54.028 406.810,52.906 405.009,52.055 C403.207,51.205 401.116,50.780 398.736,50.780 C396.288,50.780 394.197,51.239 392.463,52.157 C390.729,53.075 389.284,54.248 388.128,55.676 C386.971,57.104 386.122,58.669 385.578,60.368 C385.033,62.068 384.762,63.734 384.762,65.366 C384.762,66.727 385.017,68.222 385.527,69.854 C386.037,71.486 386.853,73.033 387.975,74.495 C389.097,75.958 390.541,77.182 392.310,78.167 C394.078,79.153 396.253,79.646 398.838,79.646 C401.490,79.646 403.717,79.153 405.519,78.167 C407.320,77.182 408.783,75.958 409.905,74.495 C411.027,73.033 411.826,71.452 412.302,69.752 C412.777,68.053 413.016,66.523 413.016,65.162 C413.016,63.463 412.726,61.762 412.149,60.062 ZM346.480,36.908 L363.412,36.908 L363.412,93.518 L346.480,93.518 L346.480,36.908 ZM346.480,18.038 L363.412,18.038 L363.412,30.890 L346.480,30.890 L346.480,18.038 ZM324.440,87.398 L324.236,87.398 C323.895,88.010 323.352,88.759 322.604,89.642 C321.855,90.526 320.819,91.393 319.493,92.243 C318.167,93.094 316.518,93.824 314.546,94.436 C312.573,95.048 310.160,95.354 307.304,95.354 C303.020,95.354 299.127,94.571 295.625,93.008 C292.122,91.444 289.148,89.302 286.700,86.582 C284.252,83.863 282.348,80.666 280.988,76.994 C279.627,73.322 278.948,69.344 278.948,65.060 C278.948,60.301 279.729,56.050 281.294,52.310 C282.858,48.571 284.949,45.409 287.567,42.824 C290.184,40.240 293.177,38.285 296.543,36.959 C299.909,35.633 303.393,34.970 306.998,34.970 C309.513,34.970 311.706,35.242 313.577,35.786 C315.447,36.331 317.045,36.959 318.371,37.673 C319.697,38.387 320.784,39.118 321.635,39.866 C322.485,40.615 323.148,41.227 323.624,41.702 L323.624,18.038 L340.556,18.038 L340.556,93.518 L324.440,93.518 L324.440,87.398 ZM323.624,59.858 C323.012,58.159 322.110,56.645 320.921,55.319 C319.731,53.993 318.234,52.906 316.433,52.055 C314.631,51.205 312.573,50.780 310.262,50.780 C307.814,50.780 305.688,51.205 303.887,52.055 C302.085,52.906 300.588,54.028 299.399,55.421 C298.209,56.815 297.324,58.345 296.747,60.011 C296.169,61.678 295.880,63.326 295.880,64.958 C295.880,67.135 296.237,69.124 296.951,70.925 C297.665,72.727 298.668,74.275 299.960,75.566 C301.251,76.858 302.765,77.845 304.499,78.524 C306.233,79.204 308.085,79.544 310.058,79.544 C312.710,79.544 314.954,79.069 316.790,78.116 C318.626,77.164 320.121,75.958 321.278,74.495 C322.434,73.033 323.267,71.452 323.777,69.752 C324.287,68.053 324.542,66.454 324.542,64.958 C324.542,63.259 324.236,61.558 323.624,59.858 ZM274.618,70.364 L232.186,70.364 C232.730,73.765 234.242,76.399 236.725,78.269 C239.207,80.140 242.114,81.074 245.446,81.074 C248.030,81.074 250.103,80.564 251.668,79.544 C253.232,78.524 254.591,77.266 255.748,75.770 L273.088,75.770 C271.727,78.967 270.062,81.772 268.090,84.185 C266.117,86.599 263.942,88.622 261.562,90.254 C256.802,93.653 251.429,95.354 245.446,95.354 C241.366,95.354 237.524,94.589 233.920,93.059 C230.315,91.529 227.137,89.404 224.383,86.684 C221.629,83.965 219.452,80.785 217.855,77.147 C216.257,73.510 215.458,69.583 215.458,65.366 C215.458,61.423 216.188,57.614 217.651,53.942 C219.113,50.270 221.170,47.041 223.822,44.252 C226.474,41.464 229.619,39.220 233.257,37.520 C236.894,35.821 240.856,34.970 245.140,34.970 C249.424,34.970 253.402,35.770 257.074,37.367 C260.746,38.965 263.908,41.158 266.560,43.946 C269.212,46.735 271.286,50.015 272.782,53.789 C274.277,57.563 275.026,61.592 275.026,65.876 C275.026,67.033 274.991,67.900 274.924,68.477 C274.856,69.055 274.754,69.685 274.618,70.364 ZM257.023,56.033 C256.513,54.911 255.748,53.840 254.728,52.820 C253.708,51.800 252.416,50.950 250.852,50.270 C249.287,49.591 247.418,49.250 245.242,49.250 C243.065,49.250 241.196,49.591 239.632,50.270 C238.067,50.950 236.776,51.800 235.756,52.820 C234.736,53.840 233.971,54.911 233.461,56.033 C232.951,57.155 232.594,58.124 232.390,58.940 L258.094,58.940 C257.890,58.124 257.533,57.155 257.023,56.033 ZM193.430,37.010 L193.226,36.806 L177.110,93.518 L164.360,93.518 L148.244,36.806 L148.040,37.010 L148.652,93.518 L130.904,93.518 L130.904,18.038 L155.690,18.038 L170.684,67.712 L170.888,67.712 L185.678,18.038 L210.566,18.038 L210.566,93.518 L192.818,93.518 L193.430,37.010 Z"/>
<path fill-rule="evenodd"  fill="rgb(255, 255, 255)"
 d="M99.129,110.013 L10.878,110.013 C4.896,110.013 0.003,105.117 0.003,99.136 L0.003,10.880 C0.003,4.898 4.896,0.006 10.878,0.006 L99.129,0.006 C105.110,0.006 110.003,4.898 110.003,10.880 L110.003,99.136 C110.003,105.117 105.110,110.013 99.129,110.013 ZM10.007,100.992 L25.377,96.217 L14.743,85.502 L10.007,100.992 ZM18.003,74.842 L15.922,81.649 L29.202,95.032 L35.957,92.935 L61.908,84.876 L43.954,66.783 L26.000,48.692 L18.003,74.842 ZM67.342,6.998 L57.314,17.101 L57.334,17.122 L29.230,45.436 L39.259,55.542 L67.290,27.290 L70.171,30.234 L42.157,58.462 L52.185,68.565 L80.133,40.406 L83.010,43.345 L55.084,71.485 L65.112,81.591 L92.972,53.517 L92.984,53.530 L103.013,43.425 L67.342,6.998 Z"/>
</svg>