<svg xmlns="http://www.w3.org/2000/svg" viewBox="0 0 250 250"><defs><style>.cls-1{fill:#e6f1fa;}.cls-2,.cls-3,.cls-4,.cls-5{fill:none;}.cls-2,.cls-3,.cls-4,.cls-5,.cls-6{stroke:#d1d5e2;stroke-linecap:round;stroke-width:4.43px;}.cls-2{stroke-miterlimit:10;}.cls-3,.cls-4,.cls-5,.cls-6{stroke-linejoin:round;}.cls-4{stroke-dasharray:2.05 10.23;}.cls-5{stroke-dasharray:2.05 10.27;}.cls-6{fill:#fdfeff;}</style></defs><title>Background 5</title><g id="Background_5" data-name="Background 5"><path class="cls-1" d="M67.69,142.25a114.79,114.79,0,0,1-4.38-28.72c-.37-9.52,1-19.46,6.25-27.41,7.85-11.84,23.82-14,36.71-16,16.46-2.51,31.74-10,48.2-11.76C167.91,57,182.47,60,192,69.56c18.7,18.61,6.27,38.85,1.51,59.52-2.48,10.77.21,20.28,4.39,30.26,3.53,8.47,7.4,17.26,6.7,26.41-2.55,33.56-42.64,12.57-58.87,5.77-10.27-4.3-21.09-5.41-31.88-7.7C91.43,179,74.38,164.37,67.69,142.25Z"/><line class="cls-2" x1="65.31" y1="220" x2="178.02" y2="220"/><line class="cls-2" x1="188.54" y1="220" x2="202.67" y2="220"/><line class="cls-3" x1="102.42" y1="123.8" x2="102.42" y2="124.9"/><line class="cls-4" x1="102.42" y1="135.13" x2="102.42" y2="154.57"/><line class="cls-3" x1="102.42" y1="159.69" x2="102.42" y2="160.8"/><line class="cls-3" x1="102.42" y1="38.4" x2="102.42" y2="39.51"/><line class="cls-5" x1="102.42" y1="49.77" x2="102.42" y2="69.28"/><line class="cls-3" x1="102.42" y1="74.42" x2="102.42" y2="75.52"/><line class="cls-3" x1="126.62" y1="99.6" x2="127.73" y2="99.6"/><line class="cls-4" x1="137.96" y1="99.6" x2="157.4" y2="99.6"/><line class="cls-3" x1="162.51" y1="99.6" x2="163.62" y2="99.6"/><line class="cls-3" x1="41.22" y1="99.6" x2="42.33" y2="99.6"/><line class="cls-5" x1="52.6" y1="99.6" x2="72.11" y2="99.6"/><line class="cls-3" x1="77.24" y1="99.6" x2="78.35" y2="99.6"/><line class="cls-3" x1="119.53" y1="116.71" x2="120.32" y2="117.49"/><line class="cls-4" x1="127.55" y1="124.73" x2="141.29" y2="138.47"/><line class="cls-3" x1="144.91" y1="142.09" x2="145.69" y2="142.87"/><line class="cls-3" x1="59.15" y1="56.32" x2="59.93" y2="57.11"/><line class="cls-5" x1="67.19" y1="64.37" x2="80.98" y2="78.16"/><line class="cls-3" x1="84.62" y1="81.79" x2="85.4" y2="82.58"/><line class="cls-3" x1="119.53" y1="82.49" x2="120.32" y2="81.7"/><line class="cls-4" x1="127.55" y1="74.47" x2="141.29" y2="60.72"/><line class="cls-3" x1="144.91" y1="57.11" x2="145.69" y2="56.32"/><line class="cls-3" x1="59.15" y1="142.87" x2="59.93" y2="142.09"/><line class="cls-5" x1="67.19" y1="134.83" x2="80.98" y2="121.03"/><line class="cls-3" x1="84.62" y1="117.4" x2="85.4" y2="116.62"/><line class="cls-3" x1="124.78" y1="108.86" x2="125.8" y2="109.28"/><line class="cls-4" x1="135.25" y1="113.2" x2="153.21" y2="120.64"/><line class="cls-3" x1="157.94" y1="122.59" x2="158.96" y2="123.02"/><line class="cls-3" x1="45.88" y1="76.18" x2="46.9" y2="76.6"/><line class="cls-5" x1="56.39" y1="80.53" x2="74.41" y2="88"/><line class="cls-3" x1="79.16" y1="89.96" x2="80.18" y2="90.38"/><line class="cls-3" x1="111.68" y1="77.24" x2="112.1" y2="76.22"/><line class="cls-4" x1="116.02" y1="66.76" x2="123.46" y2="48.81"/><line class="cls-3" x1="125.42" y1="44.08" x2="125.84" y2="43.06"/><line class="cls-3" x1="79" y1="156.14" x2="79.42" y2="155.11"/><line class="cls-5" x1="83.35" y1="145.63" x2="90.82" y2="127.6"/><line class="cls-3" x1="92.78" y1="122.86" x2="93.21" y2="121.84"/><line class="cls-3" x1="124.78" y1="90.34" x2="125.8" y2="89.91"/><line class="cls-4" x1="135.25" y1="86" x2="153.21" y2="78.56"/><line class="cls-3" x1="157.94" y1="76.6" x2="158.96" y2="76.18"/><line class="cls-3" x1="45.88" y1="123.02" x2="46.9" y2="122.59"/><line class="cls-5" x1="56.39" y1="118.66" x2="74.41" y2="111.2"/><line class="cls-3" x1="79.16" y1="109.23" x2="80.18" y2="108.81"/><line class="cls-3" x1="93.16" y1="77.24" x2="92.74" y2="76.22"/><line class="cls-4" x1="88.82" y1="66.76" x2="81.38" y2="48.81"/><line class="cls-3" x1="79.42" y1="44.08" x2="79" y2="43.06"/><line class="cls-3" x1="125.84" y1="156.14" x2="125.42" y2="155.11"/><line class="cls-5" x1="121.49" y1="145.63" x2="114.02" y2="127.6"/><line class="cls-3" x1="112.06" y1="122.86" x2="111.63" y2="121.84"/><polygon class="cls-6" points="196.3 58.87 200.15 66.69 208.78 67.94 202.54 74.03 204.01 82.62 196.3 78.56 188.58 82.62 190.05 74.03 183.81 67.94 192.44 66.69 196.3 58.87"/></g></svg>